<?xml version="1.0" encoding="UTF-8" standalone="no"?>
<!DOCTYPE svg PUBLIC "-//W3C//DTD SVG 1.1//EN" "http://www.w3.org/Graphics/SVG/1.1/DTD/svg11.dtd">
<svg width="100%" height="100%" viewBox="0 0 140 130" version="1.1" xmlns="http://www.w3.org/2000/svg" xmlns:xlink="http://www.w3.org/1999/xlink" xml:space="preserve" xmlns:serif="http://www.serif.com/" style="fill-rule:evenodd;clip-rule:evenodd;stroke-linejoin:round;stroke-miterlimit:2;">
    <g transform="matrix(1,0,0,1,-878.208,-908.099)">
        <g transform="matrix(1,0,0,1,165.082,224.277)">
            <path d="M851.837,721.271L851.837,760.72C851.837,775.312 847.709,786.832 839.453,795.28C827.741,807.376 809.213,813.424 783.869,813.424C756.605,813.424 737.213,807.28 725.693,794.992C717.629,786.544 713.597,775.12 713.597,760.72L713.597,721.287C724.839,730.6 740.091,737.216 759.677,740.152L759.677,752.368C759.677,760.624 761.981,766.864 766.589,771.088C770.237,774.352 775.613,775.984 782.717,775.984C789.821,775.984 795.293,774.16 799.133,770.512C803.549,766.096 805.757,760.048 805.757,752.368L805.757,740.346C825.058,737.532 840.317,730.877 851.837,721.271Z" style="fill:rgb(242,13,13);"/>
        </g>
        <path d="M924.749,964.717C940.201,967.403 955.631,967.35 971.038,964.623L970.848,979.652C955.869,982.998 940.468,982.758 924.659,979.015L924.749,964.717Z" style="fill:rgb(242,13,13);"/>
        <g transform="matrix(0.998015,0.0629804,0.0629804,-0.998015,140.293,1284.43)">
            <path d="M805.757,410.676L805.757,427.541C815.047,428.005 824.606,428.412 829.645,428.412C836.617,428.412 850.006,426.491 851.837,426.224L851.837,408.647C850.006,409.059 836.617,412.018 829.645,412.018C824.606,412.018 815.047,411.392 805.757,410.676Z" style="fill:rgb(242,13,13);"/>
        </g>
        <g transform="matrix(0.998015,0.0629804,0.0629804,-0.998015,140.293,1289.43)">
            <path d="M713.597,408.613L713.597,426.202C714.595,426.351 728.474,428.412 735.58,428.412C740.668,428.412 750.452,427.963 759.677,427.469L759.677,410.565C750.452,411.326 740.668,412.018 735.58,412.018C728.474,412.018 714.595,408.843 713.597,408.613Z" style="fill:rgb(242,13,13);"/>
        </g>
    </g>
</svg>
